<svg width="495" height="372" viewBox="0 0 495 372" fill="none" xmlns="http://www.w3.org/2000/svg">
<path d="M169.227 29.8578C193.849 10.6161 223.129 0 253.741 0C286.349 0 316.295 10.6161 341.582 28.5308C345.131 31.6272 345.353 34.7235 342.248 37.8199L315.629 63.0332C312.967 66.5719 309.64 67.2354 305.647 65.0237C290.341 54.4076 272.374 48.436 253.075 48.436C229.784 48.436 208.489 55.7346 191.187 70.3318C192.518 53.7441 183.201 38.4834 169.227 29.8578ZM118.651 94.218C113.327 109.479 110 124.739 110 141.327C110 201.043 148.597 251.469 210.485 269.384C197.842 256.777 197.842 236.209 208.489 221.611C180.834 212.371 162.468 190.093 159.91 157.915C143.273 155.924 131.96 141.991 131.96 125.403V103.507C126.637 101.517 121.978 98.1991 118.651 94.218ZM267.716 171.848V157.915H391.5C391.5 218.957 332.266 278.673 261.061 280C275.701 272.038 283.687 255.45 281.69 238.863C297.662 233.555 329.514 206.77 337.5 193.5H267.716C267.716 199.693 261.948 193.5 267.716 193.5V171.848Z" fill="url(#paint0_linear_15_10)"/>
<path d="M142.306 94.6667H160.973V123.333C160.973 128.667 163.639 131.333 168.973 131.333H196.306V150H165.639C152.306 150 142.306 139.333 142.306 125.333V94.6667Z" fill="#192731"/>
<path d="M224 162H242V228H224V162Z" fill="#192731"/>
<path d="M268 153V127.82C268 123.273 270.889 121 276.667 121H287.333C293.111 121 296 123.273 296 127.82V153H268Z" fill="#076BFF"/>
<path d="M308 153V103.485C308 98.4949 310.889 96 316.667 96H327.333C333.111 96 336 98.4949 336 103.485V153H308Z" fill="#08B1E8"/>
<path d="M347 153V79.3796C347 73.7932 350.147 71 356.442 71H366.558C372.853 71 376 73.7932 376 79.3796V153H347Z" fill="#09C5B6"/>
<path fill-rule="evenodd" clip-rule="evenodd" d="M180.972 66.6667C180.972 74.8 177.742 82.6002 171.99 88.3513C166.239 94.1024 158.439 97.3333 150.306 97.3333C142.173 97.3333 134.372 94.1024 128.621 88.3513C122.87 82.6002 119.639 74.8 119.639 66.6667C119.639 58.5334 122.87 50.7332 128.621 44.9821C134.372 39.2309 142.173 36 150.306 36C158.439 36 166.239 39.2309 171.99 44.9821C177.742 50.7332 180.972 58.5334 180.972 66.6667ZM163.306 66.6667C163.306 70.1145 161.936 73.4211 159.498 75.8591C157.06 78.297 153.754 79.6667 150.306 79.6667C146.858 79.6667 143.551 78.297 141.113 75.8591C138.675 73.4211 137.306 70.1145 137.306 66.6667C137.306 63.2189 138.675 59.9123 141.113 57.4743C143.551 55.0363 146.858 53.6667 150.306 53.6667C153.754 53.6667 157.06 55.0363 159.498 57.4743C161.936 59.9123 163.306 63.2189 163.306 66.6667Z" fill="#076BFF"/>
<path fill-rule="evenodd" clip-rule="evenodd" d="M248.306 146.667C248.306 150.606 247.53 154.507 246.022 158.147C244.515 161.787 242.305 165.094 239.519 167.88C236.733 170.666 233.426 172.875 229.786 174.383C226.147 175.891 222.246 176.667 218.306 176.667C214.366 176.667 210.465 175.891 206.825 174.383C203.186 172.875 199.878 170.666 197.093 167.88C194.307 165.094 192.097 161.787 190.59 158.147C189.082 154.507 188.306 150.606 188.306 146.667C188.306 142.727 189.082 138.826 190.59 135.186C192.097 131.546 194.307 128.239 197.093 125.453C199.878 122.668 203.186 120.458 206.825 118.95C210.465 117.443 214.366 116.667 218.306 116.667C222.246 116.667 226.147 117.443 229.786 118.95C233.426 120.458 236.733 122.668 239.519 125.453C242.305 128.239 244.515 131.546 246.022 135.186C247.53 138.826 248.306 142.727 248.306 146.667ZM230.973 146.667C230.973 150.026 229.638 153.248 227.263 155.623C224.887 157.999 221.665 159.333 218.306 159.333C214.946 159.333 211.725 157.999 209.349 155.623C206.974 153.248 205.639 150.026 205.639 146.667C205.639 143.307 206.974 140.085 209.349 137.71C211.725 135.335 214.946 134 218.306 134C221.665 134 224.887 135.335 227.263 137.71C229.638 140.085 230.973 143.307 230.973 146.667Z" fill="#08B1E8"/>
<path fill-rule="evenodd" clip-rule="evenodd" d="M272.306 245.333C272.306 253.29 269.145 260.92 263.519 266.547C257.893 272.173 250.262 275.333 242.306 275.333C234.349 275.333 226.719 272.173 221.093 266.547C215.467 260.92 212.306 253.29 212.306 245.333C212.306 237.377 215.467 229.746 221.093 224.12C226.719 218.494 234.349 215.333 242.306 215.333C250.262 215.333 257.893 218.494 263.519 224.12C269.145 229.746 272.306 237.377 272.306 245.333ZM254.973 245.333C254.973 248.693 253.638 251.915 251.263 254.29C248.887 256.666 245.665 258 242.306 258C238.946 258 235.725 256.666 233.349 254.29C230.974 251.915 229.639 248.693 229.639 245.333C229.639 241.974 230.974 238.752 233.349 236.377C235.725 234.001 238.946 232.667 242.306 232.667C245.665 232.667 248.887 234.001 251.263 236.377C253.638 238.752 254.973 241.974 254.973 245.333Z" fill="#09C5B6"/>
<path d="M61.3594 365.897C57.2344 367.902 52.9518 369.406 48.5117 370.409C44.0716 371.412 39.4883 371.913 34.7617 371.913C24.0768 371.913 15.612 368.934 9.36719 362.975C3.1224 356.988 0 348.882 0 338.655C0 328.314 3.17969 320.178 9.53906 314.249C15.8984 308.319 24.6068 305.354 35.6641 305.354C39.9323 305.354 44.0143 305.755 47.9102 306.557C51.8346 307.359 55.5299 308.548 58.9961 310.124V323.401C55.4154 321.367 51.849 319.849 48.2969 318.846C44.7734 317.844 41.2357 317.343 37.6836 317.343C31.0951 317.343 26.0104 319.19 22.4297 322.885C18.8776 326.552 17.1016 331.809 17.1016 338.655C17.1016 345.444 18.8203 350.686 22.2578 354.382C25.6953 358.077 30.5794 359.925 36.9102 359.925C38.6289 359.925 40.2188 359.824 41.6797 359.624C43.1693 359.395 44.5013 359.051 45.6758 358.593V346.132H35.5781V335.046H61.3594V365.897Z" fill="url(#paint1_linear_15_10)"/>
<path d="M70.5715 322.542H85.9543V370.667H70.5715V322.542ZM70.5715 303.807H85.9543V316.354H70.5715V303.807Z" fill="url(#paint2_linear_15_10)"/>
<path d="M112.87 308.878V322.542H128.725V333.542H112.87V353.952C112.87 356.186 113.314 357.705 114.202 358.507C115.09 359.28 116.852 359.667 119.487 359.667H127.393V370.667H114.202C108.129 370.667 103.818 369.406 101.268 366.885C98.7475 364.336 97.4871 360.025 97.4871 353.952V333.542H89.8386V322.542H97.4871V308.878H112.87Z" fill="url(#paint3_linear_15_10)"/>
<path d="M171.066 324.046V335.733C167.772 334.358 164.592 333.327 161.527 332.639C158.462 331.952 155.569 331.608 152.848 331.608C149.926 331.608 147.749 331.981 146.316 332.725C144.913 333.441 144.211 334.559 144.211 336.077C144.211 337.309 144.741 338.254 145.801 338.913C146.889 339.572 148.823 340.059 151.602 340.374L154.309 340.76C162.186 341.763 167.486 343.41 170.207 345.702C172.928 347.994 174.289 351.589 174.289 356.487C174.289 361.615 172.398 365.468 168.617 368.046C164.836 370.624 159.193 371.913 151.688 371.913C148.508 371.913 145.214 371.655 141.805 371.139C138.424 370.652 134.944 369.908 131.363 368.905V357.218C134.428 358.707 137.565 359.824 140.773 360.569C144.01 361.314 147.29 361.686 150.613 361.686C153.621 361.686 155.884 361.271 157.402 360.44C158.921 359.609 159.68 358.378 159.68 356.745C159.68 355.37 159.15 354.353 158.09 353.694C157.059 353.007 154.982 352.477 151.859 352.104L149.152 351.76C142.306 350.901 137.508 349.311 134.758 346.991C132.008 344.671 130.633 341.147 130.633 336.421C130.633 331.322 132.38 327.54 135.875 325.077C139.37 322.613 144.727 321.382 151.945 321.382C154.781 321.382 157.76 321.596 160.883 322.026C164.005 322.456 167.4 323.129 171.066 324.046Z" fill="#076BFF"/>
<path d="M229.564 341.362V370.667H214.095V365.897V348.323C214.095 344.112 213.995 341.219 213.794 339.643C213.622 338.068 213.307 336.908 212.849 336.163C212.247 335.16 211.431 334.387 210.4 333.843C209.368 333.27 208.194 332.983 206.876 332.983C203.668 332.983 201.147 334.229 199.314 336.721C197.48 339.185 196.564 342.608 196.564 346.991V370.667H181.181V303.807H196.564V329.589C198.884 326.781 201.348 324.719 203.954 323.401C206.561 322.055 209.44 321.382 212.591 321.382C218.148 321.382 222.359 323.086 225.224 326.495C228.117 329.904 229.564 334.859 229.564 341.362Z" fill="#076BFF"/>
<path d="M264.772 360.741C268.066 360.741 270.573 359.538 272.292 357.132C274.039 354.725 274.913 351.231 274.913 346.647C274.913 342.064 274.039 338.569 272.292 336.163C270.573 333.757 268.066 332.553 264.772 332.553C261.478 332.553 258.943 333.771 257.167 336.206C255.419 338.612 254.546 342.093 254.546 346.647C254.546 351.202 255.419 354.697 257.167 357.132C258.943 359.538 261.478 360.741 264.772 360.741ZM254.546 329.589C256.665 326.781 259.014 324.719 261.593 323.401C264.171 322.055 267.136 321.382 270.487 321.382C276.417 321.382 281.287 323.745 285.096 328.471C288.906 333.169 290.811 339.228 290.811 346.647C290.811 354.066 288.906 360.139 285.096 364.866C281.287 369.564 276.417 371.913 270.487 371.913C267.136 371.913 264.171 371.254 261.593 369.936C259.014 368.59 256.665 366.513 254.546 363.706V370.667H239.163V303.807H254.546V329.589Z" fill="url(#paint4_linear_15_10)"/>
<path d="M320.391 332.382C316.982 332.382 314.375 333.613 312.57 336.077C310.794 338.512 309.906 342.035 309.906 346.647C309.906 351.259 310.794 354.797 312.57 357.26C314.375 359.695 316.982 360.913 320.391 360.913C323.742 360.913 326.306 359.695 328.082 357.26C329.858 354.797 330.746 351.259 330.746 346.647C330.746 342.035 329.858 338.512 328.082 336.077C326.306 333.613 323.742 332.382 320.391 332.382ZM320.391 321.382C328.669 321.382 335.129 323.616 339.77 328.085C344.439 332.553 346.773 338.741 346.773 346.647C346.773 354.553 344.439 360.741 339.77 365.21C335.129 369.678 328.669 371.913 320.391 371.913C312.083 371.913 305.581 369.678 300.883 365.21C296.214 360.741 293.879 354.553 293.879 346.647C293.879 338.741 296.214 332.553 300.883 328.085C305.581 323.616 312.083 321.382 320.391 321.382Z" fill="url(#paint5_linear_15_10)"/>
<path d="M374.849 349.01C371.641 349.01 369.22 349.555 367.587 350.643C365.983 351.732 365.181 353.336 365.181 355.456C365.181 357.404 365.826 358.936 367.115 360.053C368.432 361.142 370.251 361.686 372.572 361.686C375.465 361.686 377.9 360.655 379.876 358.593C381.853 356.501 382.841 353.895 382.841 350.772V349.01H374.849ZM398.353 343.21V370.667H382.841V363.534C380.779 366.456 378.458 368.59 375.88 369.936C373.302 371.254 370.166 371.913 366.47 371.913C361.486 371.913 357.432 370.466 354.31 367.573C351.216 364.651 349.669 360.87 349.669 356.229C349.669 350.586 351.603 346.447 355.47 343.811C359.366 341.176 365.468 339.858 373.775 339.858H382.841V338.655C382.841 336.22 381.882 334.444 379.962 333.327C378.043 332.181 375.05 331.608 370.982 331.608C367.688 331.608 364.623 331.938 361.787 332.596C358.951 333.255 356.315 334.244 353.88 335.561V323.831C357.175 323.029 360.483 322.427 363.806 322.026C367.129 321.596 370.452 321.382 373.775 321.382C382.455 321.382 388.714 323.1 392.552 326.538C396.419 329.947 398.353 335.504 398.353 343.21Z" fill="url(#paint6_linear_15_10)"/>
<path d="M443.745 335.647C442.398 335.017 441.052 334.559 439.706 334.272C438.388 333.957 437.056 333.8 435.709 333.8C431.756 333.8 428.706 335.074 426.557 337.624C424.437 340.145 423.377 343.768 423.377 348.495V370.667H407.995V322.542H423.377V330.448C425.354 327.297 427.617 325.005 430.167 323.573C432.745 322.112 435.824 321.382 439.405 321.382C439.92 321.382 440.479 321.41 441.081 321.468C441.682 321.496 442.556 321.582 443.702 321.725L443.745 335.647Z" fill="url(#paint7_linear_15_10)"/>
<path d="M479.469 329.589V303.807H494.938V370.667H479.469V363.706C477.349 366.542 475.014 368.619 472.465 369.936C469.915 371.254 466.965 371.913 463.613 371.913C457.684 371.913 452.814 369.564 449.004 364.866C445.194 360.139 443.289 354.066 443.289 346.647C443.289 339.228 445.194 333.169 449.004 328.471C452.814 323.745 457.684 321.382 463.613 321.382C466.936 321.382 469.872 322.055 472.422 323.401C475 324.719 477.349 326.781 479.469 329.589ZM469.328 360.741C472.622 360.741 475.129 359.538 476.848 357.132C478.595 354.725 479.469 351.231 479.469 346.647C479.469 342.064 478.595 338.569 476.848 336.163C475.129 333.757 472.622 332.553 469.328 332.553C466.063 332.553 463.556 333.757 461.809 336.163C460.09 338.569 459.23 342.064 459.23 346.647C459.23 351.231 460.09 354.725 461.809 357.132C463.556 359.538 466.063 360.741 469.328 360.741Z" fill="url(#paint8_linear_15_10)"/>
<defs>
<linearGradient id="paint0_linear_15_10" x1="110" y1="0" x2="195.061" y2="279.294" gradientUnits="userSpaceOnUse">
<stop stop-color="#252532"/>
<stop offset="1" stop-color="#172630"/>
</linearGradient>
<linearGradient id="paint1_linear_15_10" x1="0" y1="305.354" x2="66.339" y2="366.511" gradientUnits="userSpaceOnUse">
<stop stop-color="#1C2435"/>
<stop offset="1" stop-color="#091827"/>
</linearGradient>
<linearGradient id="paint2_linear_15_10" x1="70.5715" y1="303.807" x2="99.7904" y2="310.53" gradientUnits="userSpaceOnUse">
<stop stop-color="#1C2435"/>
<stop offset="1" stop-color="#091827"/>
</linearGradient>
<linearGradient id="paint3_linear_15_10" x1="89.8386" y1="308.878" x2="145.547" y2="343.938" gradientUnits="userSpaceOnUse">
<stop stop-color="#1C2435"/>
<stop offset="1" stop-color="#091827"/>
</linearGradient>
<linearGradient id="paint4_linear_15_10" x1="239.163" y1="303.807" x2="304.744" y2="353.541" gradientUnits="userSpaceOnUse">
<stop stop-color="#1C2435"/>
<stop offset="1" stop-color="#091827"/>
</linearGradient>
<linearGradient id="paint5_linear_15_10" x1="293.879" y1="321.382" x2="344.357" y2="374.221" gradientUnits="userSpaceOnUse">
<stop stop-color="#1C2435"/>
<stop offset="1" stop-color="#091827"/>
</linearGradient>
<linearGradient id="paint6_linear_15_10" x1="349.669" y1="321.382" x2="400.166" y2="370.031" gradientUnits="userSpaceOnUse">
<stop stop-color="#1C2435"/>
<stop offset="1" stop-color="#091827"/>
</linearGradient>
<linearGradient id="paint7_linear_15_10" x1="407.995" y1="321.382" x2="454.844" y2="355.365" gradientUnits="userSpaceOnUse">
<stop stop-color="#1C2435"/>
<stop offset="1" stop-color="#091827"/>
</linearGradient>
<linearGradient id="paint8_linear_15_10" x1="443.289" y1="303.807" x2="508.87" y2="353.541" gradientUnits="userSpaceOnUse">
<stop stop-color="#1C2435"/>
<stop offset="1" stop-color="#091827"/>
</linearGradient>
</defs>
</svg>
